<?xml version="1.0" encoding="utf-8" ?>
<svg xmlns="http://www.w3.org/2000/svg" xmlns:xlink="http://www.w3.org/1999/xlink" width="1024" height="1024">
	<path fill="#0D3D4F" d="M0 0L1024 0L1024 1024L0 1024L0 0Z"/>
	<path fill="#17516E" d="M501.972 230.192C509.184 229.404 516.959 231.144 523.864 233.08C542.606 238.336 561.049 245.279 579.509 251.473L705.86 294.682L766.889 315.22C776.465 318.413 787.451 320.71 796.312 325.472C802.837 328.978 809.138 335.669 811.076 342.97C813.469 351.989 809.055 383.332 807.987 394.043C805.974 414.234 804.445 434.548 801.807 454.665C793.801 515.709 778.321 578.424 747.383 632.2C742.283 641.065 736.306 649.55 730.379 657.875C679.643 729.143 599.935 786.148 515.328 809.167Q512.988 809.631 510.624 809.947C502.623 810.974 493.131 807.789 485.513 805.492C441.57 792.246 399.669 767.826 363.445 740.007Q358.687 736.359 354.052 732.558Q349.417 728.756 344.909 724.804Q340.401 720.853 336.024 716.755Q331.648 712.658 327.409 708.419Q323.17 704.18 319.072 699.804Q314.974 695.428 311.022 690.921Q307.07 686.413 303.268 681.778Q299.466 677.143 295.817 672.386Q292.169 667.628 288.68 662.754Q285.19 657.88 281.861 652.893Q278.533 647.907 275.37 642.814Q272.208 637.722 269.214 632.528Q266.22 627.334 263.398 622.045Q260.576 616.756 257.929 611.377Q255.282 605.998 252.813 600.535Q250.344 595.072 248.055 589.531C230.454 546.054 218.982 489.221 212.915 442.716Q208.163 406.306 206.085 369.647C205.699 362.392 204.69 354.407 205.627 347.221C206.347 341.706 208.35 336.523 211.796 332.134C213.972 329.362 217.152 326.187 220.42 324.837C226.495 322.328 232.975 320.391 239.194 318.249Q260.9 310.836 282.695 303.692L377.018 271.59L444.366 248.284C460.086 242.704 486.189 232.043 501.972 230.192Z"/>
	<path fill="#0D3D4F" d="M505.312 239.222C511.927 238.867 518.671 241.086 524.933 243C555.5 252.343 585.718 263.502 615.866 274.129L687.66 298.676C715.837 308.246 744.248 317.213 772.224 327.359C778.587 329.667 788.243 331.999 793.605 335.662C798.05 338.698 800.117 342.522 801.092 347.728C802.563 355.574 800.757 364.83 800.021 372.709Q798.843 384.819 797.928 396.952C790.856 484.003 775.018 575.349 724.067 648.444C683.442 706.726 630.199 748.946 566.028 779.06C548.8 787.145 529.971 795.536 511.115 798.892C484.262 801.037 422.112 767.787 398.408 752.516C385.752 744.362 373.07 734.773 361.355 725.311Q349.767 715.809 339.023 705.363Q328.279 694.917 318.455 683.6Q311.153 675.355 304.38 666.671Q297.606 657.987 291.388 648.897Q285.17 639.807 279.531 630.347Q273.892 620.887 268.855 611.093C240.177 554.451 226.702 483.594 220.132 420.8Q217.592 395.656 215.763 370.45C215.318 363.684 214.344 356.255 215.011 349.501C215.407 345.498 216.424 341.518 219.053 338.382C220.897 336.183 222.795 334.661 225.469 333.591C245.374 325.625 266.234 319.346 286.587 312.607Q325.137 299.677 363.554 286.354Q410.543 269.691 457.764 253.698C471.036 249.172 492.089 240.447 505.312 239.222Z"/>
	<path fill="#F6FBFD" d="M525.116 516.906C525.76 516.98 526.567 517.024 527.195 517.227C528.681 517.708 529.913 518.612 530.636 520.022C531.35 521.415 531.407 522.988 530.753 524.43C529.852 526.417 528.443 526.952 526.51 527.553C524.377 526.999 522.364 526.595 521.268 524.44C520.606 523.136 520.492 522.212 520.898 520.802C521.502 518.701 523.293 517.785 525.116 516.906Z"/>
	<path fill="#F6FBFD" d="M522.378 536.109L530.185 536.093C529.645 550.159 530.073 564.372 530.031 578.456L522.475 578.438L522.378 536.109Z"/>
	<path fill="#20D590" d="M576.373 478.179Q587.218 477.895 598.061 478.26L598.014 495.371Q587.16 495.372 576.306 495.235L576.373 478.179Z"/>
	<path fill="#F6FBFD" d="M692.587 534.742C696.71 535.333 701.141 536.207 704.522 538.786C705.899 539.836 707.264 541.193 707.513 542.969C707.103 544.101 706.369 545.128 705.239 545.66C701.866 547.247 697.273 542.022 693.568 541.303C690.667 540.741 687.866 541.854 685.568 543.584C682.344 546.012 680.895 549.651 680.386 553.554C679.7 558.808 680.305 564.786 683.781 569.01C685.803 571.467 688.654 573.056 691.842 573.306C696.41 573.663 700.04 571.288 703.297 568.383L704.028 567.49L704.849 567.42C706.076 568.564 707.133 569.794 708.212 571.077Q707.843 571.621 707.461 572.156C704.57 576.182 700.458 578.886 695.499 579.569Q695.011 579.632 694.52 579.671Q694.029 579.71 693.537 579.724Q693.045 579.738 692.553 579.728Q692.061 579.718 691.569 579.684Q691.078 579.649 690.59 579.591Q690.101 579.532 689.615 579.449Q689.13 579.366 688.65 579.259Q688.169 579.152 687.694 579.022Q687.22 578.891 686.752 578.737Q686.285 578.583 685.825 578.406Q685.366 578.229 684.916 578.03Q684.466 577.83 684.026 577.609Q683.586 577.387 683.158 577.144Q682.73 576.901 682.315 576.637Q681.899 576.373 681.497 576.088Q681.095 575.804 680.708 575.5C676.103 571.935 673.514 566.81 672.779 561.091C671.941 554.57 672.783 547.035 677.016 541.78C681.068 536.75 686.543 535.543 692.587 534.742Z"/>
	<path fill="#F6FBFD" d="M435.504 535.071C435.694 535.061 435.884 535.038 436.074 535.042C437.626 535.08 437.851 535.021 438.89 536.089C439.939 539.297 439.359 542.973 439.237 546.316C435.056 546.299 431.482 546.114 428.359 549.418C423.57 554.486 425.466 571.792 425.486 578.798L414.672 578.824C414.267 564.59 414.773 550.231 414.807 535.983C417.696 535.915 421.882 535.416 424.564 536.447C424.603 537.686 424.487 538.899 425.213 539.963C428.406 537.951 431.174 536.13 434.895 535.215L435.504 535.071Z"/>
	<path fill="#20D590" d="M609.097 464.163Q620.088 464.024 631.079 464.188L631.008 495.328Q620.076 495.369 609.145 495.215C608.88 484.893 609.104 474.492 609.097 464.163Z"/>
	<path fill="#F6FBFD" d="M541.942 536.07C543.583 536.002 545.136 535.923 546.763 536.173C547.89 537.627 547.767 538.952 548.084 540.734C550.592 540.602 553.619 535.864 560.795 535.691C565.071 535.588 569.099 536.472 572.19 539.619C579.414 546.974 577.021 568.665 576.936 578.691L569.454 578.854C569.363 570.698 569.444 562.532 569.441 554.375C569.451 553.344 569.465 552.285 569.323 551.262C568.902 548.232 567.465 545.079 564.84 543.364C562.632 541.921 559.884 541.622 557.366 542.331C553.257 543.489 551.089 546.24 549.058 549.81C548.817 559.326 549.074 568.925 549.076 578.447L541.894 578.5C542.125 564.367 541.942 550.205 541.942 536.07Z"/>
	<path fill="#F6FBFD" d="M646.707 535.122Q648.472 534.997 650.24 534.953C653.84 534.886 657.316 536.11 659.852 538.721C666.893 545.969 664.491 568.722 664.391 578.525L657.004 578.622C656.92 570.868 658.271 555.426 656.614 548.79C655.971 546.219 654.701 543.831 652.278 542.549C649.411 541.031 646.799 541.845 643.882 542.692C641.22 543.914 639.016 545.382 636.877 547.378L636.888 578.612L629.458 578.729L629.46 550.441C629.465 546.499 628.982 541.864 629.498 537.992C629.672 536.69 629.959 536.61 630.958 535.893C632.305 535.734 632.844 535.876 634.052 536.486C635.325 537.869 635.466 540 635.806 541.8C639.123 538.524 642.313 536.581 646.707 535.122Z"/>
	<path fill="#20D590" d="M542.685 458.283L564.361 458.444L564.162 495.445C557.205 496.187 549.55 495.548 542.517 495.543Q542.49 476.913 542.685 458.283Z"/>
	<path fill="#F6FBFD" d="M454.912 521.237L460.134 521.203L460.083 535.61C463.471 535.587 466.853 535.703 470.239 535.81C470.446 539.045 470.302 542.365 470.299 545.611L460.507 545.544C460.489 553.136 460.314 560.772 460.72 568.353C463.653 568.54 466.664 568.437 469.607 568.454C469.64 571.18 470.056 574.746 469.474 577.373C469.212 578.556 468.832 578.627 467.876 579.285C466.338 579.39 464.785 579.513 463.243 579.526C459.377 579.557 455.382 578.696 452.604 575.818C447.471 570.502 449.486 553.399 449.518 546.047L443.077 546.022C443.091 542.946 443.261 539.913 443.482 536.846C445.616 536.3 447.745 536.054 449.926 535.79C450.012 531.348 448.809 526.323 450.554 522.189C452.063 521.117 453.09 521.327 454.912 521.237Z"/>
	<path fill="#F6FBFD" d="M599.999 536.156C601.534 535.998 603.027 535.937 604.571 536.043C608.585 536.319 612.122 537.525 614.743 540.711C616.47 542.811 617.504 545.439 618.038 548.083C619.091 553.3 619.015 571.366 618.459 576.794C618.31 578.251 618.136 578.14 616.973 579.076C615.706 579.244 615.359 579.272 614.231 578.501C612.701 577.457 612.419 576.336 612.012 574.604C611.967 574.409 611.926 574.212 611.883 574.017C608.115 577.533 603.786 579.63 598.518 579.354C593.815 579.107 590.531 577.314 587.478 573.847C586.005 570.986 585.067 568.238 585.267 564.967C585.425 562.385 586.71 560.159 588.708 558.55C594.856 553.599 604.196 554.904 611.465 555.72C611.551 553.407 611.803 550.485 611.011 548.288C610.208 546.06 608.752 544.151 606.566 543.153C601.682 540.925 595.614 543.046 590.966 544.961C590.223 544.061 589.659 543.183 589.089 542.164C589.182 541.285 589.122 540.981 589.632 540.211C591.464 537.45 596.908 536.654 599.999 536.156Z"/>
	<path fill="#0D3D4F" d="M598.314 560.201L611.479 560.501L611.466 567.89C609.4 569.612 607.252 571.182 605.073 572.756C602.614 573.234 599.728 573.709 597.393 572.554C595.431 571.583 593.703 569.661 593.08 567.55C592.624 566.002 592.782 564.363 593.631 562.978C594.769 561.121 596.276 560.621 598.314 560.201Z"/>
	<path fill="#F6FBFD" d="M729.819 535.197C730.705 535.103 731.605 535.023 732.497 535.064C736.656 535.251 740.584 536.645 743.43 539.756C748.545 545.348 748.498 552.892 748.181 559.963C738.629 560.217 729.074 560.131 719.519 560.429C720.277 563.678 720.855 566.498 723.2 569.047C725.619 571.675 728.84 573.095 732.413 573.155C736.761 573.227 740.111 571.392 743.224 568.543C743.663 567.829 743.337 568.153 744.367 567.768C745.417 568.309 746.388 568.899 746.91 570.026C747.406 571.094 747.422 572.263 746.851 573.307C744.999 576.688 738.938 578.789 735.393 579.236C729.812 579.94 723.752 578.391 719.364 574.826C715.066 571.335 712.914 566.041 712.338 560.644C711.629 553.993 712.637 546.513 717.115 541.292C720.625 537.199 724.624 535.686 729.819 535.197Z"/>
	<path fill="#0D3D4F" d="M727.5 541.607C730.771 541.252 734.397 541.001 737.249 542.985C739.583 544.609 741.275 549.37 741.716 552.048C741.931 553.354 741.88 553.952 741.123 555.017C738.618 555.26 736.061 555.071 733.548 554.997L719.625 554.977C719.952 552.609 720.192 550.091 720.993 547.831C722.211 544.391 724.286 543.046 727.5 541.607Z"/>
	<path fill="#F6FBFD" d="M385.807 536.106C387.45 535.991 389.102 535.865 390.749 535.854C395.193 535.822 399.862 537.096 403.04 540.341C409.753 547.194 407.486 568.895 407.433 578.703C405.953 578.75 399.608 579.372 398.582 578.736C397.088 577.81 398.602 575.636 397.321 574.438C394.088 575.064 392.074 578.239 388.819 579.069C385.555 579.901 381.601 578.514 378.757 576.978Q378.341 576.627 377.938 576.262C375.169 573.741 373.535 570.37 373.506 566.588C373.481 563.427 374.8 560.511 376.998 558.274C381.026 554.175 387.115 554.25 392.439 554.18C393.982 554.16 395.449 554.474 396.549 553.337C396.679 551.807 396.51 550.652 396.037 549.182C395.526 547.596 394.737 546.441 393.14 545.794C389.222 544.208 382.945 546.392 379.316 547.964C377.664 545.315 376.247 542.651 374.899 539.836C378.425 537.876 381.898 536.925 385.807 536.106Z"/>
	<path fill="#0D3D4F" d="M388.227 561.131C390.323 561.069 393.658 560.574 395.403 561.87C396.568 562.736 396.663 563.222 396.913 564.546C396.055 567.231 393.976 569.051 391.677 570.559C390.505 570.799 389.108 571.116 387.919 570.877Q387.652 570.822 387.392 570.738Q387.133 570.655 386.884 570.544Q386.635 570.432 386.4 570.295Q386.165 570.157 385.946 569.995Q385.727 569.832 385.526 569.647Q385.326 569.462 385.148 569.256Q384.969 569.05 384.813 568.826Q384.658 568.602 384.528 568.363Q384.413 568.153 384.322 567.932Q384.23 567.711 384.162 567.482Q384.094 567.253 384.051 567.017Q384.008 566.782 383.99 566.544Q383.971 566.305 383.979 566.066Q383.986 565.827 384.019 565.59Q384.051 565.353 384.109 565.121Q384.166 564.889 384.248 564.664C384.962 562.665 386.423 561.931 388.227 561.131Z"/>
	<path fill="#F6FBFD" d="M476.989 519.985Q496.504 519.894 516.019 520.005L516.09 530.968Q502.483 531.026 488.877 531.221L488.744 544.439C496.599 544.22 504.482 544.396 512.34 544.449L512.302 552.125C512.287 553.428 512.424 554.026 511.726 555.151C504.884 556.371 495.634 555.452 488.566 555.451L488.558 578.727L476.949 578.73L476.989 519.985Z"/>
	<path fill="#20D590" d="M643.489 435.957L664.926 435.946L664.888 495.587L643.719 495.529C643.175 475.709 643.535 455.789 643.489 435.957Z"/>
	<path fill="#F6FBFD" d="M274.292 521.616C283.788 521.042 290.709 523.091 298.234 528.856C295.734 531.648 293.579 534.494 291.513 537.618C287.672 534.752 283.357 531.455 278.257 531.958C275.915 532.189 272.697 532.678 271.239 534.734C270.395 535.924 270.12 537.03 270.299 538.473C273.018 544.006 287.479 546.007 293.142 550.162C296.206 552.409 298.565 555.663 299.045 559.5C299.689 564.651 299.227 568.962 295.796 573.059C291.564 578.112 285.312 579.304 279.123 579.91C270.675 580.545 263.116 576.872 256.248 572.377C258.621 568.965 260.769 565.433 262.924 561.882C267.117 565.779 271.132 568.234 277.018 568.545C279.604 568.681 283.666 568.558 285.562 566.42C286.444 565.425 286.851 564.34 286.651 563C285.709 556.675 270.246 554.09 264.832 550.572C261.488 548.4 258.9 545.56 258.195 541.531C257.522 537.689 258.371 532.084 260.703 528.881C263.921 524.46 269.137 522.556 274.292 521.616Z"/>
	<path fill="#F6FBFD" d="M325.021 535.573C327.25 535.348 329.532 535.178 331.735 535.705C336.089 536.748 338.368 540.06 340.584 543.624C341.305 542.61 342.042 541.607 342.856 540.663C345.431 537.68 348.427 535.584 352.461 535.384C356.043 535.207 359.431 536.059 362.043 538.614C369.598 546.002 367.122 568.678 367.049 578.866L356.534 578.946C356.469 572.221 358.371 551.399 354.748 546.733C353.756 545.456 352.397 544.753 350.802 544.605C348.873 544.427 346.693 544.936 345.267 546.298C340.277 551.063 342.024 565.693 342.082 572.125L342.037 578.582C338.688 578.863 335.288 578.84 331.928 578.911C331.969 571.823 333.672 550.482 329.608 545.792C328.699 544.743 327.455 544.098 326.048 544.065C323.855 544.012 321.568 545.026 320.043 546.575C314.973 551.727 316.843 571.143 316.762 578.728L306.508 578.877L306.729 536.06L314.653 536.156C315.14 538.599 315.498 541.075 315.903 543.533C318.633 539.779 320.663 537.405 325.021 535.573Z"/>
	<path fill="#20D590" d="M681.865 356.191L682.405 356.182C683.748 358.436 680.117 374.318 679.726 378.356L673.072 370.761C654.1 390.049 634.055 408.367 614.479 427.041C606.902 434.268 592.204 450.078 583.923 455.118Q569.474 440.466 555.275 425.572Q531.865 446.525 509.313 468.399C504.327 473.161 492.94 485.602 487.747 488.705C486.97 489.17 486.196 488.653 485.372 488.422C484.58 487.611 484.16 487.197 483.938 486.069C485.238 482.382 546.474 425.613 554.793 417.663C565.083 427.031 574.452 437.611 583.944 447.781C611.978 420.588 640.908 394.278 668.754 366.891C666.033 364.311 663.062 361.933 660.214 359.491L681.865 356.191Z"/>
	<path fill="#20D590" d="M677.176 411.06L697.984 411.027L697.905 495.681Q687.624 495.576 677.344 495.801L677.176 411.06Z"/>
	<path fill="#F6FBFD" d="M711.637 604.537C714.382 602.201 721.78 603.354 725.419 603.445C721.333 613.814 713.985 623.591 707.761 632.781C669.689 688.995 612.886 734.915 550.678 761.864C541.952 765.644 515.735 776.882 507.124 776.378C498.325 775.864 486.102 770.763 477.827 767.473Q474.141 766.001 470.487 764.451Q466.833 762.901 463.212 761.275Q459.592 759.648 456.006 757.946Q452.421 756.244 448.872 754.466Q445.323 752.688 441.812 750.836Q438.302 748.984 434.831 747.059Q431.36 745.133 427.931 743.135Q424.501 741.136 421.115 739.066Q417.728 736.996 414.386 734.855Q411.044 732.714 407.748 730.503Q404.452 728.292 401.203 726.012Q397.954 723.732 394.754 721.384Q391.553 719.036 388.404 716.621Q385.254 714.206 382.155 711.725Q379.057 709.244 376.012 706.698Q372.966 704.153 369.975 701.544Q366.984 698.934 364.049 696.263Q361.114 693.591 358.235 690.858Q355.357 688.125 352.537 685.332Q349.717 682.539 346.956 679.687Q344.195 676.835 341.496 673.926Q338.796 671.016 336.158 668.051Q333.52 665.085 330.945 662.064Q328.37 659.044 325.859 655.969Q323.349 652.895 320.904 649.769Q318.458 646.642 316.08 643.465Q313.701 640.287 311.389 637.061Q309.078 633.834 306.835 630.559Q304.593 627.284 302.419 623.963Q300.246 620.642 298.143 617.275Q296.041 613.909 294.009 610.499Q291.978 607.089 290.019 603.637Q296.53 603.484 303.043 603.506C304.335 605.531 305.692 608.232 307.263 610.007C312.788 620.125 320.238 629.519 327.259 638.628Q330.631 643.027 334.133 647.323Q337.636 651.619 341.265 655.807Q344.895 659.996 348.649 664.074Q352.403 668.152 356.278 672.115Q360.153 676.078 364.145 679.923Q368.137 683.768 372.242 687.492Q376.348 691.215 380.564 694.814Q384.779 698.412 389.101 701.883Q393.423 705.353 397.847 708.692Q402.271 712.031 406.794 715.235Q411.316 718.44 415.933 721.507Q420.549 724.574 425.256 727.502Q429.962 730.429 434.755 733.214Q439.547 735.998 444.421 738.638Q449.295 741.277 454.246 743.769Q459.196 746.261 464.22 748.603C476.2 754.148 488.645 759.419 501.34 763.09C503.962 763.849 507.204 764.988 509.903 764.331C526.389 759.767 542.373 753.226 557.74 745.758Q562.89 743.298 567.959 740.676Q573.028 738.054 578.012 735.273Q582.995 732.491 587.888 729.553Q592.78 726.614 597.577 723.522Q602.374 720.429 607.07 717.186Q611.766 713.943 616.357 710.553Q620.948 707.162 625.429 703.627Q629.91 700.093 634.276 696.417Q638.643 692.742 642.89 688.93Q647.138 685.119 651.262 681.174Q655.386 677.229 659.383 673.155Q663.38 669.081 667.246 664.882Q671.111 660.684 674.842 656.364Q678.572 652.045 682.163 647.609Q685.754 643.174 689.203 638.626Q692.652 634.079 695.954 629.424C700.606 622.77 709.025 612.078 711.637 604.537Z"/>
	<path fill="#F6FBFD" d="M383.848 411.727C394.763 410.989 407.782 416.819 416.19 423.399Q417.104 424.118 417.981 424.88Q418.858 425.643 419.697 426.449Q420.535 427.254 421.333 428.1Q422.13 428.947 422.885 429.831Q423.639 430.716 424.349 431.636Q425.059 432.557 425.722 433.512Q426.385 434.467 427 435.454Q427.615 436.44 428.181 437.456Q428.746 438.472 429.26 439.514Q429.775 440.557 430.237 441.624Q430.699 442.691 431.108 443.779Q431.516 444.868 431.871 445.975Q432.225 447.082 432.524 448.206Q432.823 449.329 433.066 450.466Q433.308 451.603 433.495 452.751Q433.681 453.899 433.81 455.054C435.336 468.618 431.755 482.143 423.185 492.823C413.832 504.479 401.216 510.263 386.617 511.953C386.355 512.066 386.106 512.215 385.831 512.291C384.825 512.57 382.521 512.079 381.441 511.962C371.643 510.903 361.824 507.001 354.18 500.753C344.131 492.538 337.773 479.737 336.589 466.874C335.357 453.496 338.61 439.837 347.422 429.463C356.682 418.562 369.773 412.847 383.848 411.727Z"/>
	<path fill="#72BC3D" d="M362.435 424.596C366.477 421.557 371.828 419.965 376.629 418.635C375.909 420.092 375.608 420.619 376.111 422.207C376.276 422.729 376.511 423.226 376.712 423.735C377.36 425.379 377.572 426.508 376.797 428.162C376.095 429.658 374.725 430.847 373.582 432.009C372.504 433.105 372.136 433.913 371.638 435.369C369.922 437.031 368.231 438.652 366.747 440.532L365.936 442.452C364.8 437.034 360.423 432.66 356.341 429.095C358.312 427.428 360.275 426.002 362.435 424.596Z"/>
	<path fill="#3DB149" d="M362.435 424.596C363.858 426.616 365.266 428.628 366.834 430.54C366.753 433.674 366.245 437.473 366.747 440.532L365.936 442.452C364.8 437.034 360.423 432.66 356.341 429.095C358.312 427.428 360.275 426.002 362.435 424.596Z"/>
	<path fill="#A4C227" d="M376.629 418.635C385.846 417.348 397.202 417.989 405.07 423.604C405.57 426.428 407.362 428.933 408.303 431.648C406.297 434.589 405.995 439.704 402.894 441.276C398.236 436.1 394.458 433.222 387.685 431.154C387.734 429.452 388.112 426.696 387.333 425.154C386.777 424.053 386.466 423.913 385.371 423.685C384.904 424.027 384.64 424.183 384.251 424.661C382.951 426.256 383.277 429.107 383.265 431.057C378.904 431.907 375.467 433.118 371.638 435.369C372.136 433.913 372.504 433.105 373.582 432.009C374.725 430.847 376.095 429.658 376.797 428.162C377.572 426.508 377.36 425.379 376.712 423.735C376.511 423.226 376.276 422.729 376.111 422.207C375.608 420.619 375.909 420.092 376.629 418.635Z"/>
	<path fill="#159859" d="M383.265 431.057C383.277 429.107 382.951 426.256 384.251 424.661C384.64 424.183 384.904 424.027 385.371 423.685C386.466 423.913 386.777 424.053 387.333 425.154C388.112 426.696 387.734 429.452 387.685 431.154C394.458 433.222 398.236 436.1 402.894 441.276C405.995 439.704 406.297 434.589 408.303 431.648C407.362 428.933 405.57 426.428 405.07 423.604C415.577 429.617 423.298 438.563 426.478 450.396C429.429 461.381 427.533 473.492 421.845 483.299Q421.303 484.239 420.715 485.151Q420.127 486.063 419.494 486.945Q418.861 487.826 418.186 488.676Q417.51 489.525 416.793 490.339Q416.076 491.154 415.319 491.932Q414.563 492.71 413.768 493.449Q412.974 494.188 412.144 494.887Q411.314 495.586 410.45 496.243Q409.586 496.9 408.691 497.514Q407.796 498.127 406.871 498.695Q405.947 499.263 404.995 499.784Q404.043 500.306 403.067 500.779Q402.09 501.253 401.091 501.677Q400.093 502.102 399.074 502.476Q398.056 502.85 397.02 503.173Q395.984 503.497 394.933 503.768Q393.964 504.025 392.983 504.233Q392.002 504.442 391.012 504.601Q390.022 504.76 389.025 504.87Q388.029 504.98 387.028 505.04Q386.027 505.099 385.024 505.11Q384.022 505.12 383.02 505.08Q382.018 505.04 381.019 504.95Q380.02 504.86 379.027 504.721Q378.034 504.581 377.05 504.393Q376.065 504.204 375.091 503.966Q374.116 503.729 373.155 503.443Q372.194 503.157 371.248 502.824Q370.303 502.491 369.375 502.111Q368.447 501.731 367.539 501.305Q366.631 500.88 365.746 500.409Q364.86 499.939 363.999 499.425C353.919 493.517 346.977 483.66 344.189 472.375C341.302 460.689 342.902 448.425 349.149 438.077C351.171 434.728 353.617 431.884 356.341 429.095C360.423 432.66 364.8 437.034 365.936 442.452L366.747 440.532C368.231 438.652 369.922 437.031 371.638 435.369C375.467 433.118 378.904 431.907 383.265 431.057Z"/>
	<path fill="#F6FBFD" d="M383.265 431.057C383.277 429.107 382.951 426.256 384.251 424.661C384.64 424.183 384.904 424.027 385.371 423.685C386.466 423.913 386.777 424.053 387.333 425.154C388.112 426.696 387.734 429.452 387.685 431.154C394.458 433.222 398.236 436.1 402.894 441.276C403.823 442.742 404.306 443.084 404.171 444.855C402.835 446.895 400.717 448.012 398.822 449.473C398.077 448.101 397.374 446.651 396.555 445.325C393.581 443.681 390.593 442.586 387.373 441.529L387.327 453.357C392.778 453.804 398.438 454.369 402.24 458.834C404.987 462.059 405.865 466.51 405.313 470.636C404.608 475.906 401.721 480.517 397.461 483.651C394.474 485.849 391.063 486.96 387.525 487.912C387.596 490.004 387.95 492.093 386.813 493.941L385.896 494.594C384.943 494.185 384.674 494.074 384.203 493.068C383.79 492.186 383.926 491.201 383.951 490.256L384.009 487.751C377.758 487.594 372.554 486.136 368.123 481.411C365.712 478.841 364.466 476.052 363.362 472.759C365.404 470.87 367.08 468.949 368.767 466.743C371.388 470.768 374.535 476.795 379.76 477.762C381.123 478.014 382.485 478.24 383.738 477.64C384.735 473.168 384.015 467.655 384.01 463.059C377.849 462.866 372.166 462.182 367.789 457.303C365.313 454.542 363.49 450.343 363.909 446.575C363.978 445.956 363.967 446.113 364.329 445.646C365.173 444.558 365.687 443.85 365.936 442.452L366.747 440.532C368.231 438.652 369.922 437.031 371.638 435.369C375.467 433.118 378.904 431.907 383.265 431.057Z"/>
	<path fill="#159859" d="M380.439 441.547C381.773 441.557 382.079 441.394 383.109 442.207C384.092 445.716 383.605 449.63 383.556 453.254L377.334 452.263C375.863 451.44 374.393 450.703 373.619 449.118C373.073 448 373.103 446.957 373.63 445.85C374.859 443.265 377.965 442.355 380.439 441.547Z"/>
	<path fill="#159859" d="M387.365 463.26C389.947 463.265 392.391 463.097 394.621 464.596C395.936 465.479 396.896 466.676 397.129 468.276C397.503 470.84 395.861 473.334 394.328 475.198C392.141 476.671 389.871 477.497 387.418 478.394C387.488 473.353 387.39 468.301 387.365 463.26Z"/>
	<defs>
		<linearGradient id="gradient_0" gradientUnits="userSpaceOnUse" x1="724.43164" y1="552.88611" x2="283.77338" y2="285.25089">
			<stop offset="0" stop-color="#C1E3F0"/>
			<stop offset="1" stop-color="white"/>
		</linearGradient>
	</defs>
	<path fill="url(#gradient_0)" d="M504.904 261.583C507.574 261.444 509.82 261.738 512.401 262.467C522.814 265.411 533.156 269.373 543.435 272.805Q587.822 287.97 631.988 303.769C680.397 320.839 729.295 336.605 777.617 353.892C777.355 369.313 775.659 384.951 774.29 400.322C771.465 432.053 768.195 464.693 761.15 495.778C757.327 495.573 753.449 495.671 749.618 495.641C757.928 452.602 764.427 405.616 766.049 361.8C744.793 355.18 723.739 347.429 702.665 340.218Q644.812 320.741 587.35 300.141L533.665 281.202C525.466 278.286 515.978 273.837 507.604 272.109C500.418 273.276 492.509 277.006 485.588 279.419L426.549 300.545L326.731 335.256C301.161 343.91 275.099 351.887 249.944 361.666C249.709 395.96 256.546 438.274 262.571 472.642C264.181 481.822 266.376 490.917 267.777 500.127L256.077 500.085C252.614 484.751 249.768 468.973 247.369 453.44C245.018 438.222 235.527 365.273 239.629 356.914C240.921 354.281 243.404 352.012 246.109 350.907C253.974 347.695 262.545 345.366 270.601 342.578L338.15 319.406L436.621 284.98L480.024 270.063C488.309 267.218 496.508 264.088 504.904 261.583Z"/>
	<path fill="#17516E" d="M304.864 604.758C315.489 604.865 326.235 604.166 336.898 604.153C392.646 604.084 448.503 603.442 504.244 604.156C551.882 604.728 599.586 604.199 647.229 604.225C668.465 604.237 689.843 603.789 711.043 604.606C711.242 604.614 711.439 604.56 711.637 604.537C709.025 612.078 700.606 622.77 695.954 629.424Q692.652 634.079 689.203 638.626Q685.754 643.174 682.163 647.609Q678.572 652.045 674.842 656.364Q671.111 660.684 667.246 664.882Q663.38 669.081 659.383 673.155Q655.386 677.229 651.262 681.174Q647.138 685.119 642.89 688.93Q638.643 692.742 634.276 696.417Q629.91 700.093 625.429 703.627Q620.948 707.162 616.357 710.553Q611.766 713.943 607.07 717.186Q602.374 720.429 597.577 723.522Q592.78 726.614 587.888 729.553Q582.995 732.491 578.012 735.273Q573.028 738.054 567.959 740.676Q562.89 743.298 557.74 745.758C542.373 753.226 526.389 759.767 509.903 764.331C507.204 764.988 503.962 763.849 501.34 763.09C488.645 759.419 476.2 754.148 464.22 748.603Q459.196 746.261 454.246 743.769Q449.295 741.277 444.421 738.638Q439.547 735.998 434.755 733.214Q429.962 730.429 425.256 727.502Q420.549 724.574 415.933 721.507Q411.316 718.44 406.794 715.235Q402.271 712.031 397.847 708.692Q393.423 705.353 389.101 701.883Q384.779 698.412 380.564 694.814Q376.348 691.215 372.242 687.492Q368.137 683.768 364.145 679.923Q360.153 676.078 356.278 672.115Q352.403 668.152 348.649 664.074Q344.895 659.996 341.265 655.807Q337.636 651.619 334.133 647.323Q330.631 643.027 327.259 638.628C320.238 629.519 312.788 620.125 307.263 610.007L307.66 609.556C307.168 607.635 306.043 606.319 304.864 604.758Z"/>
</svg>
